<?xml version="1.0" standalone="no"?>
<!DOCTYPE svg PUBLIC "-//W3C//DTD SVG 20010904//EN"
 "http://www.w3.org/TR/2001/REC-SVG-20010904/DTD/svg10.dtd">
<svg version="1.0" xmlns="http://www.w3.org/2000/svg"
 width="512.000000pt" height="512.000000pt" viewBox="0 0 512.000000 512.000000"
 preserveAspectRatio="xMidYMid meet">
<metadata>
Created by potrace 1.14, written by Peter Selinger 2001-2017
</metadata>
<g transform="translate(0.000000,512.000000) scale(0.100000,-0.100000)"
fill="#000000" stroke="none">
<path d="M895 4193 c11 -79 63 -309 100 -438 56 -198 130 -410 276 -788 77
-196 187 -494 245 -660 145 -414 212 -598 359 -992 35 -93 99 -267 143 -385
44 -118 90 -241 102 -273 l22 -57 410 2 411 3 94 255 c51 140 118 323 147 405
30 83 91 251 136 375 45 124 167 464 270 755 327 919 383 1073 567 1534 47
118 87 229 90 248 11 65 26 63 -446 63 l-426 0 -87 -257 c-99 -295 -541 -1604
-647 -1918 -39 -115 -71 -210 -71 -212 0 -6 -46 -2 -56 5 -6 4 -29 61 -52 127
-22 66 -156 455 -297 865 -141 410 -265 770 -275 800 -10 30 -59 174 -109 319
-50 145 -91 265 -91 267 0 2 -185 4 -411 4 l-411 0 7 -47z"/>
</g>
</svg>
