<svg width="170" height="52" viewBox="0 0 170 52" fill="none" xmlns="http://www.w3.org/2000/svg">
<g clip-path="url(#clip0)">
<path d="M81.2412 50.8955C78.5663 50.8955 76.0972 50.8955 73.4909 50.8955C69.1013 43.8209 64.7117 36.7807 59.8763 29.0159C59.8763 36.7462 59.8763 43.5793 59.8763 50.7229C57.0643 50.7229 54.4237 50.7229 51.2687 50.7229C51.2344 38.2302 51.2687 25.6684 51.2687 12.865C54.0121 12.865 56.5499 12.865 59.3619 12.865C63.6829 19.8016 68.0725 26.8417 72.9079 34.6066C72.9079 26.8762 72.9079 20.0432 72.9079 12.8995C75.72 12.8995 78.3606 12.8995 81.0355 12.8995C81.3098 17.3859 81.5499 42.5785 81.2412 50.8955Z" fill="#292626"/>
<path d="M142.97 12.7961C142.97 15.1774 142.97 17.386 142.97 20.0088C137.654 20.5265 132.305 19.9743 126.852 20.3194C126.852 23.0112 126.852 25.427 126.852 28.2223C131.413 28.2223 135.837 28.2223 140.535 28.2223C140.535 30.638 140.535 32.6742 140.535 35.0554C135.322 35.2279 132.373 34.9518 126.989 35.3315C126.989 37.7472 126.989 40.439 126.989 43.2344C132.27 43.2344 137.586 43.2344 143.21 43.2344C143.21 45.8571 143.21 48.1348 143.21 50.447C139.369 50.4815 122.702 50.8957 118.21 50.6196C118.21 38.1268 118.21 25.565 118.21 12.7961C126.475 12.7961 134.637 12.7961 142.97 12.7961Z" fill="#292626"/>
<path d="M114.163 26.0826C111.454 26.0826 108.985 26.0826 106.31 26.0826C106.07 25.3923 106.173 23.8049 105.933 23.1492C104.527 19.1114 98.8685 18.2487 95.5078 20.9405C94.479 21.7687 93.6559 23.4252 93.5873 24.7366C93.3473 29.4646 93.3816 34.227 93.553 38.9549C93.6216 41.7158 94.8905 42.8891 97.5997 43.5448C101.989 44.5801 104.424 43.1997 105.796 38.8514C105.899 38.5063 106.07 38.1612 106.276 37.609C108.779 37.609 111.351 37.609 113.923 37.609C114.129 42.2679 113.34 46.9269 109.431 49.2736C103.087 53.0352 96.5366 52.8627 90.1923 49.3081C86.9344 47.479 85.2197 44.2696 85.0825 40.6114C84.8425 34.7447 84.7739 28.8779 85.0825 23.0456C85.3226 18.3177 87.9632 14.8667 92.4899 13.1411C97.3253 11.3121 102.264 11.1395 107.099 13.1757C112.449 15.3843 114.849 19.7326 114.163 26.0826Z" fill="#292626"/>
<path d="M21.7421 50.93C18.7929 50.93 16.2209 50.93 13.1344 50.93C10.8711 44.7872 8.43621 38.5408 6.31001 32.2254C4.14952 25.91 1.0631 19.9051 0 12.8305C2.94925 12.8305 5.48697 12.8305 8.60768 12.8305C11.4198 20.975 14.3004 29.361 17.1811 37.7815C17.3868 37.8161 17.5926 37.8506 17.8326 37.8506C20.6447 29.5681 23.4225 21.2511 26.3032 12.7615C28.9781 12.7615 31.5501 12.7615 34.225 12.7615C36.0768 12.727 35.8025 12.727 33.8477 17.6275C30.9671 24.9092 28.5322 32.3979 25.823 39.7486C24.5199 43.4067 23.1824 46.9958 21.7421 50.93Z" fill="#292626"/>
<path d="M38.6831 12.7271C41.5295 12.7271 44.0672 12.7271 46.8793 12.7271C46.8793 25.4269 46.8793 37.9542 46.8793 50.7575C44.2044 50.7575 41.5638 50.7575 38.6831 50.7575C38.6831 38.1612 38.6831 25.634 38.6831 12.7271Z" fill="#292626"/>
</g>
<path d="M155.945 11.8126H156.527C157.205 11.8126 157.528 12.0711 157.625 12.6527C157.787 13.2666 157.884 13.7512 158.045 13.9451H159.37C159.241 13.7512 159.144 13.4281 158.982 12.6204C158.821 11.9096 158.53 11.5218 158.013 11.328V11.2634C158.659 11.0695 159.111 10.6172 159.111 10.0356C159.111 9.51862 158.885 9.09859 158.594 8.87242C158.207 8.64625 157.754 8.4847 156.753 8.4847C155.88 8.4847 155.202 8.54932 154.717 8.64625V13.9451H155.945V11.8126ZM155.977 9.42169C156.107 9.38938 156.333 9.35707 156.656 9.35707C157.431 9.35707 157.787 9.68017 157.787 10.1648C157.787 10.7141 157.237 10.9403 156.559 10.9403H155.977V9.42169ZM156.785 5.86758C153.748 5.86758 151.325 8.22622 151.325 11.1664C151.325 14.1713 153.748 16.5299 156.785 16.5299C159.855 16.5299 162.213 14.1713 162.213 11.1664C162.213 8.22622 159.855 5.86758 156.785 5.86758ZM156.785 6.93381C159.144 6.93381 160.856 8.84011 160.856 11.1987C160.856 13.5251 159.144 15.3991 156.817 15.3991C154.426 15.3991 152.682 13.5251 152.682 11.1664C152.682 8.84011 154.426 6.93381 156.785 6.93381Z" fill="#292626"/>
<defs>
<clipPath id="clip0">
<rect width="150" height="43" fill="white" transform="translate(0 9)"/>
</clipPath>
</defs>
</svg>
